{
	"patcher" : 	{
		"fileversion" : 1,
		"appversion" : 		{
			"major" : 8,
			"minor" : 1,
			"revision" : 2,
			"architecture" : "x64",
			"modernui" : 1
		}
,
		"classnamespace" : "box",
		"rect" : [ 663.0, 599.0, 266.0, 173.0 ],
		"bglocked" : 0,
		"openinpresentation" : 1,
		"default_fontsize" : 12.0,
		"default_fontface" : 0,
		"default_fontname" : "Arial",
		"gridonopen" : 1,
		"gridsize" : [ 15.0, 15.0 ],
		"gridsnaponopen" : 1,
		"objectsnaponopen" : 1,
		"statusbarvisible" : 2,
		"toolbarvisible" : 0,
		"lefttoolbarpinned" : 0,
		"toptoolbarpinned" : 0,
		"righttoolbarpinned" : 0,
		"bottomtoolbarpinned" : 0,
		"toolbars_unpinned_last_save" : 0,
		"tallnewobj" : 0,
		"boxanimatetime" : 200,
		"enablehscroll" : 1,
		"enablevscroll" : 1,
		"devicewidth" : 0.0,
		"description" : "",
		"digest" : "",
		"tags" : "",
		"style" : "",
		"subpatcher_template" : "",
		"title" : "vc-hub",
		"boxes" : [ 			{
				"box" : 				{
					"bgcolor" : [ 0.2, 0.192157, 0.211765, 1.0 ],
					"fontname" : "Ableton Sans Medium",
					"fontsize" : 9.5,
					"id" : "obj-49",
					"maxclass" : "comment",
					"numinlets" : 1,
					"numoutlets" : 0,
					"patching_rect" : [ 248.25, 335.5, 76.0, 18.0 ],
					"presentation" : 1,
					"presentation_rect" : [ 11.399999999999977, 142.0, 56.0, 18.0 ],
					"text" : "TIME",
					"textcolor" : [ 0.909804, 0.921569, 0.933333, 1.0 ],
					"textjustification" : 1
				}

			}
, 			{
				"box" : 				{
					"bgcolor" : [ 0.2, 0.192157, 0.211765, 1.0 ],
					"fontname" : "Ableton Sans Medium",
					"fontsize" : 9.5,
					"id" : "obj-39",
					"maxclass" : "comment",
					"numinlets" : 1,
					"numoutlets" : 0,
					"patching_rect" : [ 245.25, 317.5, 76.0, 18.0 ],
					"presentation" : 1,
					"presentation_rect" : [ 11.399999999999977, 120.0, 56.0, 18.0 ],
					"text" : "HEADING",
					"textcolor" : [ 0.909804, 0.921569, 0.933333, 1.0 ],
					"textjustification" : 1
				}

			}
, 			{
				"box" : 				{
					"bgcolor" : [ 0.2, 0.192157, 0.211765, 1.0 ],
					"fontname" : "Ableton Sans Medium",
					"fontsize" : 9.5,
					"id" : "obj-32",
					"maxclass" : "comment",
					"numinlets" : 1,
					"numoutlets" : 0,
					"patching_rect" : [ 249.25, 296.5, 76.0, 18.0 ],
					"presentation" : 1,
					"presentation_rect" : [ 11.399999999999977, 98.0, 56.0, 18.0 ],
					"text" : "LAT/LON",
					"textcolor" : [ 0.909804, 0.921569, 0.933333, 1.0 ],
					"textjustification" : 1
				}

			}
, 			{
				"box" : 				{
					"bgcolor" : [ 0.2, 0.192157, 0.211765, 1.0 ],
					"fontname" : "Ableton Sans Medium",
					"fontsize" : 9.5,
					"id" : "obj-26",
					"maxclass" : "comment",
					"numinlets" : 1,
					"numoutlets" : 0,
					"patching_rect" : [ 248.25, 277.5, 76.0, 18.0 ],
					"presentation" : 1,
					"presentation_rect" : [ 11.399999999999977, 76.0, 56.0, 18.0 ],
					"text" : "A[XYZ]",
					"textcolor" : [ 0.909804, 0.921569, 0.933333, 1.0 ],
					"textjustification" : 1
				}

			}
, 			{
				"box" : 				{
					"bgcolor" : [ 0.2, 0.192157, 0.211765, 1.0 ],
					"fontname" : "Ableton Sans Medium",
					"fontsize" : 9.5,
					"id" : "obj-21",
					"maxclass" : "comment",
					"numinlets" : 1,
					"numoutlets" : 0,
					"patching_rect" : [ 249.25, 251.5, 76.0, 18.0 ],
					"presentation" : 1,
					"presentation_rect" : [ 11.399999999999977, 54.0, 56.0, 18.0 ],
					"text" : "R[XYZW]",
					"textcolor" : [ 0.909804, 0.921569, 0.933333, 1.0 ],
					"textjustification" : 1
				}

			}
, 			{
				"box" : 				{
					"bgcolor" : [ 0.2, 0.192157, 0.211765, 1.0 ],
					"fontname" : "Ableton Sans Medium",
					"fontsize" : 9.5,
					"id" : "obj-15",
					"maxclass" : "comment",
					"numinlets" : 1,
					"numoutlets" : 0,
					"patching_rect" : [ 248.25, 234.5, 76.0, 18.0 ],
					"presentation" : 1,
					"presentation_rect" : [ 11.399999999999977, 32.0, 56.0, 18.0 ],
					"text" : "V[XYZT]",
					"textcolor" : [ 0.909804, 0.921569, 0.933333, 1.0 ],
					"textjustification" : 1
				}

			}
, 			{
				"box" : 				{
					"bgcolor" : [ 0.2, 0.192157, 0.211765, 1.0 ],
					"fontname" : "Ableton Sans Medium",
					"fontsize" : 9.5,
					"id" : "obj-9",
					"maxclass" : "comment",
					"numinlets" : 1,
					"numoutlets" : 0,
					"patching_rect" : [ 248.25, 217.5, 76.0, 18.0 ],
					"presentation" : 1,
					"presentation_rect" : [ 11.399999999999977, 10.0, 56.0, 18.0 ],
					"text" : "P[EUN]",
					"textcolor" : [ 0.909804, 0.921569, 0.933333, 1.0 ],
					"textjustification" : 1
				}

			}
, 			{
				"box" : 				{
					"bgcolor" : [ 0.2, 0.192157, 0.211765, 1.0 ],
					"fontname" : "Ableton Sans Medium",
					"fontsize" : 9.5,
					"id" : "obj-131",
					"linecount" : 2,
					"maxclass" : "comment",
					"numinlets" : 1,
					"numoutlets" : 0,
					"patching_rect" : [ 136.25, 347.716669112443981, 76.0, 29.0 ],
					"presentation" : 1,
					"presentation_linecount" : 2,
					"presentation_rect" : [ 181.399999999999977, 131.0, 76.0, 29.0 ],
					"text" : "RECEIVING ON PORT 4813",
					"textcolor" : [ 0.909804, 0.921569, 0.933333, 1.0 ],
					"textjustification" : 1
				}

			}
, 			{
				"box" : 				{
					"id" : "obj-5",
					"linecount" : 2,
					"maxclass" : "newobj",
					"numinlets" : 6,
					"numoutlets" : 1,
					"outlettype" : [ "" ],
					"patching_rect" : [ 996.0, 298.0, 137.0, 35.0 ],
					"text" : "scale -3.14159 3.14159 0. 360."
				}

			}
, 			{
				"box" : 				{
					"bgcolor" : [ 0.16078431372549, 0.466666666666667, 0.737254901960784, 1.0 ],
					"fontname" : "Ableton Sans Medium",
					"fontsize" : 9.5,
					"format" : 6,
					"id" : "obj-25",
					"maxclass" : "flonum",
					"numinlets" : 1,
					"numoutlets" : 2,
					"outlettype" : [ "", "bang" ],
					"parameter_enable" : 1,
					"parameter_mappable" : 0,
					"patching_rect" : [ 464.0, 644.0, 46.0, 20.0 ],
					"presentation" : 1,
					"presentation_rect" : [ 210.399999999999977, 32.0, 45.0, 20.0 ],
					"saved_attribute_attributes" : 					{
						"valueof" : 						{
							"parameter_type" : 3,
							"parameter_longname" : "number[21]",
							"parameter_invisible" : 2,
							"parameter_shortname" : "number[5]"
						}

					}
,
					"triangle" : 0,
					"varname" : "number[18]"
				}

			}
, 			{
				"box" : 				{
					"id" : "obj-24",
					"maxclass" : "newobj",
					"numinlets" : 1,
					"numoutlets" : 0,
					"patching_rect" : [ 464.0, 682.0, 74.0, 22.0 ],
					"text" : "s vc-velocity"
				}

			}
, 			{
				"box" : 				{
					"id" : "obj-22",
					"maxclass" : "newobj",
					"numinlets" : 2,
					"numoutlets" : 2,
					"outlettype" : [ "", "" ],
					"patching_rect" : [ 464.0, 609.0, 43.0, 22.0 ],
					"text" : "zl.sum"
				}

			}
, 			{
				"box" : 				{
					"id" : "obj-7",
					"maxclass" : "newobj",
					"numinlets" : 1,
					"numoutlets" : 1,
					"outlettype" : [ "" ],
					"patching_rect" : [ 464.0, 578.0, 85.0, 22.0 ],
					"text" : "vexpr abs($f1)"
				}

			}
, 			{
				"box" : 				{
					"id" : "obj-6",
					"linecount" : 5,
					"maxclass" : "message",
					"numinlets" : 2,
					"numoutlets" : 1,
					"outlettype" : [ "" ],
					"patching_rect" : [ 244.0, 617.0, 53.0, 76.0 ],
					"text" : "-3393.578613 -696.62 -1197.967041"
				}

			}
, 			{
				"box" : 				{
					"id" : "obj-8",
					"maxclass" : "newobj",
					"numinlets" : 1,
					"numoutlets" : 0,
					"patching_rect" : [ 889.0, 142.0, 32.0, 22.0 ],
					"text" : "print"
				}

			}
, 			{
				"box" : 				{
					"id" : "obj-3",
					"maxclass" : "newobj",
					"numinlets" : 2,
					"numoutlets" : 2,
					"outlettype" : [ "", "" ],
					"patching_rect" : [ 889.0, 106.0, 62.0, 22.0 ],
					"text" : "route /test"
				}

			}
, 			{
				"box" : 				{
					"id" : "obj-2",
					"maxclass" : "newobj",
					"numinlets" : 1,
					"numoutlets" : 3,
					"outlettype" : [ "bang", "int", "int" ],
					"patching_rect" : [ 87.0, 209.0, 83.0, 22.0 ],
					"text" : "live.thisdevice"
				}

			}
, 			{
				"box" : 				{
					"id" : "obj-4",
					"maxclass" : "newobj",
					"numinlets" : 1,
					"numoutlets" : 2,
					"outlettype" : [ "", "" ],
					"patching_rect" : [ 87.0, 306.0, 67.0, 22.0 ],
					"save" : [ "#N", "thispatcher", ";", "#Q", "end", ";" ],
					"text" : "thispatcher"
				}

			}
, 			{
				"box" : 				{
					"id" : "obj-16",
					"maxclass" : "message",
					"numinlets" : 2,
					"numoutlets" : 1,
					"outlettype" : [ "" ],
					"patching_rect" : [ 87.0, 260.0, 243.0, 22.0 ],
					"text" : "title vc-hub, window flags float, window exec"
				}

			}
, 			{
				"box" : 				{
					"comment" : "",
					"id" : "obj-1",
					"index" : 0,
					"maxclass" : "inlet",
					"numinlets" : 0,
					"numoutlets" : 1,
					"outlettype" : [ "" ],
					"patching_rect" : [ 87.0, 112.0, 30.0, 30.0 ]
				}

			}
, 			{
				"box" : 				{
					"id" : "obj-53",
					"maxclass" : "newobj",
					"numinlets" : 1,
					"numoutlets" : 0,
					"patching_rect" : [ 1032.599999999999909, 178.0, 56.0, 22.0 ],
					"text" : "s vc-time"
				}

			}
, 			{
				"box" : 				{
					"id" : "obj-52",
					"linecount" : 2,
					"maxclass" : "newobj",
					"numinlets" : 1,
					"numoutlets" : 0,
					"patching_rect" : [ 1524.0, 567.0, 64.0, 35.0 ],
					"text" : "s vc-altitude"
				}

			}
, 			{
				"box" : 				{
					"id" : "obj-50",
					"linecount" : 2,
					"maxclass" : "newobj",
					"numinlets" : 1,
					"numoutlets" : 0,
					"patching_rect" : [ 1512.400000000000091, 481.0, 74.0, 35.0 ],
					"text" : "s vc-longitude"
				}

			}
, 			{
				"box" : 				{
					"id" : "obj-48",
					"maxclass" : "newobj",
					"numinlets" : 1,
					"numoutlets" : 0,
					"patching_rect" : [ 1472.766666666666424, 517.0, 73.0, 22.0 ],
					"text" : "s vc-latitude"
				}

			}
, 			{
				"box" : 				{
					"id" : "obj-46",
					"maxclass" : "newobj",
					"numinlets" : 1,
					"numoutlets" : 0,
					"patching_rect" : [ 1373.599999999999909, 550.0, 109.0, 22.0 ],
					"text" : "s vc-acceleration-z"
				}

			}
, 			{
				"box" : 				{
					"id" : "obj-45",
					"maxclass" : "newobj",
					"numinlets" : 1,
					"numoutlets" : 0,
					"patching_rect" : [ 1312.099999999999909, 513.0, 109.0, 22.0 ],
					"text" : "s vc-acceleration-y"
				}

			}
, 			{
				"box" : 				{
					"id" : "obj-44",
					"maxclass" : "newobj",
					"numinlets" : 1,
					"numoutlets" : 0,
					"patching_rect" : [ 976.399999999999977, 463.0, 86.0, 22.0 ],
					"text" : "s vc-attitude-w"
				}

			}
, 			{
				"box" : 				{
					"id" : "obj-42",
					"maxclass" : "newobj",
					"numinlets" : 1,
					"numoutlets" : 0,
					"patching_rect" : [ 919.233333333333235, 497.0, 83.0, 22.0 ],
					"text" : "s vc-attitude-z"
				}

			}
, 			{
				"box" : 				{
					"id" : "obj-41",
					"maxclass" : "newobj",
					"numinlets" : 1,
					"numoutlets" : 0,
					"patching_rect" : [ 860.06666666666672, 517.0, 83.0, 22.0 ],
					"text" : "s vc-attitude-y"
				}

			}
, 			{
				"box" : 				{
					"id" : "obj-36",
					"maxclass" : "newobj",
					"numinlets" : 1,
					"numoutlets" : 0,
					"patching_rect" : [ 801.399999999999977, 543.0, 83.0, 22.0 ],
					"text" : "s vc-attitude-x"
				}

			}
, 			{
				"box" : 				{
					"id" : "obj-27",
					"linecount" : 2,
					"maxclass" : "comment",
					"numinlets" : 1,
					"numoutlets" : 0,
					"patching_rect" : [ 1009.0, 497.0, 150.0, 33.0 ],
					"text" : "TODO: convert quat to euler here"
				}

			}
, 			{
				"box" : 				{
					"id" : "obj-20",
					"maxclass" : "newobj",
					"numinlets" : 1,
					"numoutlets" : 0,
					"patching_rect" : [ 682.5, 497.0, 84.0, 22.0 ],
					"text" : "s vc-velocity-z"
				}

			}
, 			{
				"box" : 				{
					"id" : "obj-19",
					"maxclass" : "newobj",
					"numinlets" : 1,
					"numoutlets" : 0,
					"patching_rect" : [ 620.0, 517.0, 84.0, 22.0 ],
					"text" : "s vc-velocity-y"
				}

			}
, 			{
				"box" : 				{
					"id" : "obj-18",
					"maxclass" : "newobj",
					"numinlets" : 1,
					"numoutlets" : 0,
					"patching_rect" : [ 408.999999999999886, 479.0, 107.0, 22.0 ],
					"text" : "s vc-position-north"
				}

			}
, 			{
				"box" : 				{
					"id" : "obj-12",
					"maxclass" : "newobj",
					"numinlets" : 1,
					"numoutlets" : 0,
					"patching_rect" : [ 347.499999999999886, 503.0, 93.0, 22.0 ],
					"text" : "s vc-position-up"
				}

			}
, 			{
				"box" : 				{
					"id" : "obj-47",
					"maxclass" : "newobj",
					"numinlets" : 1,
					"numoutlets" : 0,
					"patching_rect" : [ 285.999999999999886, 534.0, 102.0, 22.0 ],
					"text" : "s vc-position-east"
				}

			}
, 			{
				"box" : 				{
					"id" : "obj-37",
					"maxclass" : "newobj",
					"numinlets" : 1,
					"numoutlets" : 3,
					"outlettype" : [ "", "", "" ],
					"patching_rect" : [ 1494.766666666666424, 349.0, 41.0, 22.0 ],
					"text" : "unjoin"
				}

			}
, 			{
				"box" : 				{
					"id" : "obj-35",
					"maxclass" : "newobj",
					"numinlets" : 1,
					"numoutlets" : 4,
					"outlettype" : [ "", "", "", "" ],
					"patching_rect" : [ 560.399999999999977, 349.0, 147.933333333333394, 22.0 ],
					"text" : "unjoin 3"
				}

			}
, 			{
				"box" : 				{
					"id" : "obj-34",
					"maxclass" : "newobj",
					"numinlets" : 1,
					"numoutlets" : 5,
					"outlettype" : [ "", "", "", "", "" ],
					"patching_rect" : [ 801.399999999999977, 349.0, 252.333333333333371, 22.0 ],
					"text" : "unjoin 4"
				}

			}
, 			{
				"box" : 				{
					"id" : "obj-33",
					"maxclass" : "newobj",
					"numinlets" : 1,
					"numoutlets" : 4,
					"outlettype" : [ "", "", "", "" ],
					"patching_rect" : [ 1249.400000000000091, 349.0, 164.5, 22.0 ],
					"text" : "unjoin 3"
				}

			}
, 			{
				"box" : 				{
					"bgcolor" : [ 0.16078431372549, 0.466666666666667, 0.737254901960784, 1.0 ],
					"fontname" : "Ableton Sans Medium",
					"fontsize" : 9.5,
					"format" : 6,
					"id" : "obj-29",
					"maxclass" : "flonum",
					"numinlets" : 1,
					"numoutlets" : 2,
					"outlettype" : [ "", "bang" ],
					"parameter_enable" : 1,
					"parameter_mappable" : 0,
					"patching_rect" : [ 1373.599999999999909, 451.0, 46.0, 20.0 ],
					"presentation" : 1,
					"presentation_rect" : [ 163.399999999999977, 76.0, 45.0, 20.0 ],
					"saved_attribute_attributes" : 					{
						"valueof" : 						{
							"parameter_type" : 3,
							"parameter_longname" : "number[18]",
							"parameter_invisible" : 2,
							"parameter_shortname" : "number[10]"
						}

					}
,
					"triangle" : 0,
					"varname" : "number[3]"
				}

			}
, 			{
				"box" : 				{
					"bgcolor" : [ 0.16078431372549, 0.466666666666667, 0.737254901960784, 1.0 ],
					"fontname" : "Ableton Sans Medium",
					"fontsize" : 9.5,
					"format" : 6,
					"id" : "obj-30",
					"maxclass" : "flonum",
					"numinlets" : 1,
					"numoutlets" : 2,
					"outlettype" : [ "", "bang" ],
					"parameter_enable" : 1,
					"parameter_mappable" : 0,
					"patching_rect" : [ 1312.099999999999909, 451.0, 46.0, 20.0 ],
					"presentation" : 1,
					"presentation_rect" : [ 116.399999999999977, 76.0, 45.0, 20.0 ],
					"saved_attribute_attributes" : 					{
						"valueof" : 						{
							"parameter_type" : 3,
							"parameter_longname" : "number[19]",
							"parameter_invisible" : 2,
							"parameter_shortname" : "number[9]"
						}

					}
,
					"triangle" : 0,
					"varname" : "number[4]"
				}

			}
, 			{
				"box" : 				{
					"bgcolor" : [ 0.16078431372549, 0.466666666666667, 0.737254901960784, 1.0 ],
					"fontname" : "Ableton Sans Medium",
					"fontsize" : 9.5,
					"format" : 6,
					"id" : "obj-31",
					"maxclass" : "flonum",
					"numinlets" : 1,
					"numoutlets" : 2,
					"outlettype" : [ "", "bang" ],
					"parameter_enable" : 1,
					"parameter_mappable" : 0,
					"patching_rect" : [ 1250.599999999999909, 451.0, 46.0, 20.0 ],
					"presentation" : 1,
					"presentation_rect" : [ 69.399999999999977, 76.0, 45.0, 20.0 ],
					"saved_attribute_attributes" : 					{
						"valueof" : 						{
							"parameter_type" : 3,
							"parameter_longname" : "number[20]",
							"parameter_invisible" : 2,
							"parameter_shortname" : "number[8]"
						}

					}
,
					"triangle" : 0,
					"varname" : "number[16]"
				}

			}
, 			{
				"box" : 				{
					"id" : "obj-23",
					"maxclass" : "newobj",
					"numinlets" : 1,
					"numoutlets" : 0,
					"patching_rect" : [ 1250.599999999999909, 545.0, 109.0, 22.0 ],
					"text" : "s vc-acceleration-x"
				}

			}
, 			{
				"box" : 				{
					"id" : "obj-17",
					"maxclass" : "newobj",
					"numinlets" : 1,
					"numoutlets" : 0,
					"patching_rect" : [ 1079.599999999999909, 385.0, 77.0, 22.0 ],
					"text" : "s vc-heading"
				}

			}
, 			{
				"box" : 				{
					"id" : "obj-13",
					"maxclass" : "newobj",
					"numinlets" : 1,
					"numoutlets" : 0,
					"patching_rect" : [ 558.5, 549.0, 84.0, 22.0 ],
					"text" : "s vc-velocity-x"
				}

			}
, 			{
				"box" : 				{
					"id" : "obj-11",
					"maxclass" : "newobj",
					"numinlets" : 1,
					"numoutlets" : 4,
					"outlettype" : [ "", "", "", "" ],
					"patching_rect" : [ 286.0, 369.0, 172.999999999999886, 22.0 ],
					"text" : "unjoin 3"
				}

			}
, 			{
				"box" : 				{
					"id" : "obj-10",
					"maxclass" : "newobj",
					"numinlets" : 1,
					"numoutlets" : 1,
					"outlettype" : [ "" ],
					"patching_rect" : [ 425.0, 74.0, 97.0, 22.0 ],
					"text" : "udpreceive 4813"
				}

			}
, 			{
				"box" : 				{
					"id" : "obj-38",
					"maxclass" : "newobj",
					"numinlets" : 7,
					"numoutlets" : 7,
					"outlettype" : [ "", "", "", "", "", "", "" ],
					"patching_rect" : [ 425.0, 112.0, 333.0, 22.0 ],
					"text" : "route /position /velocity /attitude /heading /acceleration /latlon"
				}

			}
, 			{
				"box" : 				{
					"bgcolor" : [ 0.396078431372549, 0.643137254901961, 0.886274509803922, 1.0 ],
					"fontname" : "Ableton Sans Medium",
					"fontsize" : 9.5,
					"format" : 6,
					"id" : "obj-14",
					"maxclass" : "flonum",
					"numinlets" : 1,
					"numoutlets" : 2,
					"outlettype" : [ "", "bang" ],
					"parameter_enable" : 1,
					"parameter_mappable" : 0,
					"patching_rect" : [ 976.399999999999977, 415.0, 46.0, 20.0 ],
					"presentation" : 1,
					"presentation_rect" : [ 210.399999999999977, 54.0, 45.0, 20.0 ],
					"saved_attribute_attributes" : 					{
						"valueof" : 						{
							"parameter_type" : 3,
							"parameter_longname" : "number[16]",
							"parameter_invisible" : 2,
							"parameter_shortname" : "number[5]"
						}

					}
,
					"triangle" : 0,
					"varname" : "number[2]"
				}

			}
, 			{
				"box" : 				{
					"bgcolor" : [ 0.16078431372549, 0.466666666666667, 0.737254901960784, 1.0 ],
					"fontname" : "Ableton Sans Medium",
					"fontsize" : 9.5,
					"format" : 6,
					"id" : "obj-51",
					"maxclass" : "flonum",
					"numinlets" : 1,
					"numoutlets" : 2,
					"outlettype" : [ "", "bang" ],
					"parameter_enable" : 1,
					"parameter_mappable" : 0,
					"patching_rect" : [ 1079.599999999999909, 349.0, 46.0, 20.0 ],
					"presentation" : 1,
					"presentation_rect" : [ 69.399999999999977, 120.0, 45.0, 20.0 ],
					"saved_attribute_attributes" : 					{
						"valueof" : 						{
							"parameter_type" : 3,
							"parameter_longname" : "number[17]",
							"parameter_invisible" : 2,
							"parameter_shortname" : "number[17]"
						}

					}
,
					"triangle" : 0,
					"varname" : "number[17]"
				}

			}
, 			{
				"box" : 				{
					"bgcolor" : [ 0.396078431372549, 0.643137254901961, 0.886274509803922, 1.0 ],
					"fontname" : "Ableton Sans Medium",
					"fontsize" : 9.5,
					"format" : 6,
					"id" : "obj-77",
					"maxclass" : "flonum",
					"numinlets" : 1,
					"numoutlets" : 2,
					"outlettype" : [ "", "bang" ],
					"parameter_enable" : 1,
					"parameter_mappable" : 0,
					"patching_rect" : [ 1518.366666666666333, 442.0, 46.0, 20.0 ],
					"presentation" : 1,
					"presentation_rect" : [ 163.399999999999977, 98.0, 94.0, 20.0 ],
					"saved_attribute_attributes" : 					{
						"valueof" : 						{
							"parameter_type" : 3,
							"parameter_longname" : "number[15]",
							"parameter_invisible" : 2,
							"parameter_shortname" : "number[15]"
						}

					}
,
					"triangle" : 0,
					"varname" : "number[15]"
				}

			}
, 			{
				"box" : 				{
					"bgcolor" : [ 0.396078431372549, 0.643137254901961, 0.886274509803922, 1.0 ],
					"fontname" : "Ableton Sans Medium",
					"fontsize" : 9.5,
					"format" : 6,
					"id" : "obj-78",
					"maxclass" : "flonum",
					"numinlets" : 1,
					"numoutlets" : 2,
					"outlettype" : [ "", "bang" ],
					"parameter_enable" : 1,
					"parameter_mappable" : 0,
					"patching_rect" : [ 1464.866666666666333, 442.0, 46.0, 20.0 ],
					"presentation" : 1,
					"presentation_rect" : [ 69.399999999999977, 98.0, 93.0, 20.0 ],
					"saved_attribute_attributes" : 					{
						"valueof" : 						{
							"parameter_type" : 3,
							"parameter_longname" : "number[14]",
							"parameter_invisible" : 2,
							"parameter_shortname" : "number[14]"
						}

					}
,
					"triangle" : 0,
					"varname" : "number[14]"
				}

			}
, 			{
				"box" : 				{
					"bgcolor" : [ 0.396078431372549, 0.643137254901961, 0.886274509803922, 1.0 ],
					"fontname" : "Ableton Sans Medium",
					"fontsize" : 9.5,
					"format" : 6,
					"id" : "obj-69",
					"maxclass" : "flonum",
					"numinlets" : 1,
					"numoutlets" : 2,
					"outlettype" : [ "", "bang" ],
					"parameter_enable" : 1,
					"parameter_mappable" : 0,
					"patching_rect" : [ 408.999999999999886, 443.0, 46.0, 20.0 ],
					"presentation" : 1,
					"presentation_rect" : [ 163.399999999999977, 10.0, 45.0, 20.0 ],
					"saved_attribute_attributes" : 					{
						"valueof" : 						{
							"parameter_type" : 3,
							"parameter_longname" : "number[13]",
							"parameter_invisible" : 2,
							"parameter_shortname" : "number[13]"
						}

					}
,
					"triangle" : 0,
					"varname" : "number[13]"
				}

			}
, 			{
				"box" : 				{
					"bgcolor" : [ 0.396078431372549, 0.643137254901961, 0.886274509803922, 1.0 ],
					"fontname" : "Ableton Sans Medium",
					"fontsize" : 9.5,
					"format" : 6,
					"id" : "obj-70",
					"maxclass" : "flonum",
					"numinlets" : 1,
					"numoutlets" : 2,
					"outlettype" : [ "", "bang" ],
					"parameter_enable" : 1,
					"parameter_mappable" : 0,
					"patching_rect" : [ 347.499999999999886, 443.0, 46.0, 20.0 ],
					"presentation" : 1,
					"presentation_rect" : [ 116.399999999999977, 10.0, 45.0, 20.0 ],
					"saved_attribute_attributes" : 					{
						"valueof" : 						{
							"parameter_type" : 3,
							"parameter_longname" : "number[12]",
							"parameter_invisible" : 2,
							"parameter_shortname" : "number[12]"
						}

					}
,
					"triangle" : 0,
					"varname" : "number[12]"
				}

			}
, 			{
				"box" : 				{
					"bgcolor" : [ 0.396078431372549, 0.643137254901961, 0.886274509803922, 1.0 ],
					"fontname" : "Ableton Sans Medium",
					"fontsize" : 9.5,
					"format" : 6,
					"id" : "obj-73",
					"maxclass" : "flonum",
					"numinlets" : 1,
					"numoutlets" : 2,
					"outlettype" : [ "", "bang" ],
					"parameter_enable" : 1,
					"parameter_mappable" : 0,
					"patching_rect" : [ 286.0, 443.0, 46.0, 20.0 ],
					"presentation" : 1,
					"presentation_rect" : [ 69.399999999999977, 10.0, 45.0, 20.0 ],
					"saved_attribute_attributes" : 					{
						"valueof" : 						{
							"parameter_type" : 3,
							"parameter_longname" : "number[11]",
							"parameter_invisible" : 2,
							"parameter_shortname" : "number[11]"
						}

					}
,
					"triangle" : 0,
					"varname" : "number[11]"
				}

			}
, 			{
				"box" : 				{
					"bgcolor" : [ 0.16078431372549, 0.466666666666667, 0.737254901960784, 1.0 ],
					"fontname" : "Ableton Sans Medium",
					"fontsize" : 9.5,
					"format" : 6,
					"id" : "obj-64",
					"maxclass" : "flonum",
					"numinlets" : 1,
					"numoutlets" : 2,
					"outlettype" : [ "", "bang" ],
					"parameter_enable" : 1,
					"parameter_mappable" : 0,
					"patching_rect" : [ 681.5, 445.0, 46.0, 20.0 ],
					"presentation" : 1,
					"presentation_rect" : [ 163.399999999999977, 32.0, 45.0, 20.0 ],
					"saved_attribute_attributes" : 					{
						"valueof" : 						{
							"parameter_type" : 3,
							"parameter_longname" : "number[10]",
							"parameter_invisible" : 2,
							"parameter_shortname" : "number[10]"
						}

					}
,
					"triangle" : 0,
					"varname" : "number[10]"
				}

			}
, 			{
				"box" : 				{
					"bgcolor" : [ 0.16078431372549, 0.466666666666667, 0.737254901960784, 1.0 ],
					"fontname" : "Ableton Sans Medium",
					"fontsize" : 9.5,
					"format" : 6,
					"id" : "obj-65",
					"maxclass" : "flonum",
					"numinlets" : 1,
					"numoutlets" : 2,
					"outlettype" : [ "", "bang" ],
					"parameter_enable" : 1,
					"parameter_mappable" : 0,
					"patching_rect" : [ 620.0, 445.0, 46.0, 20.0 ],
					"presentation" : 1,
					"presentation_rect" : [ 116.399999999999977, 32.0, 45.0, 20.0 ],
					"saved_attribute_attributes" : 					{
						"valueof" : 						{
							"parameter_type" : 3,
							"parameter_longname" : "number[9]",
							"parameter_invisible" : 2,
							"parameter_shortname" : "number[9]"
						}

					}
,
					"triangle" : 0,
					"varname" : "number[9]"
				}

			}
, 			{
				"box" : 				{
					"bgcolor" : [ 0.16078431372549, 0.466666666666667, 0.737254901960784, 1.0 ],
					"fontname" : "Ableton Sans Medium",
					"fontsize" : 9.5,
					"format" : 6,
					"id" : "obj-67",
					"maxclass" : "flonum",
					"numinlets" : 1,
					"numoutlets" : 2,
					"outlettype" : [ "", "bang" ],
					"parameter_enable" : 1,
					"parameter_mappable" : 0,
					"patching_rect" : [ 558.5, 445.0, 46.0, 20.0 ],
					"presentation" : 1,
					"presentation_rect" : [ 69.399999999999977, 32.0, 45.0, 20.0 ],
					"saved_attribute_attributes" : 					{
						"valueof" : 						{
							"parameter_type" : 3,
							"parameter_longname" : "number[8]",
							"parameter_invisible" : 2,
							"parameter_shortname" : "number[8]"
						}

					}
,
					"triangle" : 0,
					"varname" : "number[8]"
				}

			}
, 			{
				"box" : 				{
					"bgcolor" : [ 0.396078431372549, 0.643137254901961, 0.886274509803922, 1.0 ],
					"fontname" : "Ableton Sans Medium",
					"fontsize" : 9.5,
					"format" : 6,
					"id" : "obj-63",
					"maxclass" : "flonum",
					"numinlets" : 1,
					"numoutlets" : 2,
					"outlettype" : [ "", "bang" ],
					"parameter_enable" : 1,
					"parameter_mappable" : 0,
					"patching_rect" : [ 919.233333333333235, 415.0, 46.0, 20.0 ],
					"presentation" : 1,
					"presentation_rect" : [ 163.399999999999977, 54.0, 45.0, 20.0 ],
					"saved_attribute_attributes" : 					{
						"valueof" : 						{
							"parameter_type" : 3,
							"parameter_longname" : "number[7]",
							"parameter_invisible" : 2,
							"parameter_shortname" : "number[7]"
						}

					}
,
					"triangle" : 0,
					"varname" : "number[7]"
				}

			}
, 			{
				"box" : 				{
					"bgcolor" : [ 0.396078431372549, 0.643137254901961, 0.886274509803922, 1.0 ],
					"fontname" : "Ableton Sans Medium",
					"fontsize" : 9.5,
					"format" : 6,
					"id" : "obj-60",
					"maxclass" : "flonum",
					"numinlets" : 1,
					"numoutlets" : 2,
					"outlettype" : [ "", "bang" ],
					"parameter_enable" : 1,
					"parameter_mappable" : 0,
					"patching_rect" : [ 860.06666666666672, 415.0, 46.0, 20.0 ],
					"presentation" : 1,
					"presentation_rect" : [ 116.399999999999977, 54.0, 45.0, 20.0 ],
					"saved_attribute_attributes" : 					{
						"valueof" : 						{
							"parameter_type" : 3,
							"parameter_longname" : "number[6]",
							"parameter_invisible" : 2,
							"parameter_shortname" : "number[6]"
						}

					}
,
					"triangle" : 0,
					"varname" : "number[6]"
				}

			}
, 			{
				"box" : 				{
					"bgcolor" : [ 0.396078431372549, 0.643137254901961, 0.886274509803922, 1.0 ],
					"fontname" : "Ableton Sans Medium",
					"fontsize" : 9.5,
					"format" : 6,
					"id" : "obj-58",
					"maxclass" : "flonum",
					"numinlets" : 1,
					"numoutlets" : 2,
					"outlettype" : [ "", "bang" ],
					"parameter_enable" : 1,
					"parameter_mappable" : 0,
					"patching_rect" : [ 801.399999999999977, 415.0, 46.0, 20.0 ],
					"presentation" : 1,
					"presentation_rect" : [ 69.399999999999977, 54.0, 45.0, 20.0 ],
					"saved_attribute_attributes" : 					{
						"valueof" : 						{
							"parameter_type" : 3,
							"parameter_longname" : "number[5]",
							"parameter_invisible" : 2,
							"parameter_shortname" : "number[5]"
						}

					}
,
					"triangle" : 0,
					"varname" : "number[5]"
				}

			}
, 			{
				"box" : 				{
					"bgcolor" : [ 0.396078431372549, 0.643137254901961, 0.886274509803922, 1.0 ],
					"cantchange" : 1,
					"fontname" : "Ableton Sans Medium",
					"fontsize" : 9.5,
					"format" : 6,
					"id" : "obj-43",
					"maxclass" : "flonum",
					"numinlets" : 1,
					"numoutlets" : 2,
					"outlettype" : [ "", "bang" ],
					"parameter_enable" : 1,
					"parameter_mappable" : 0,
					"patching_rect" : [ 1036.599999999999909, 116.0, 46.0, 20.0 ],
					"presentation" : 1,
					"presentation_rect" : [ 69.399999999999977, 142.0, 45.0, 20.0 ],
					"saved_attribute_attributes" : 					{
						"valueof" : 						{
							"parameter_type" : 3,
							"parameter_longname" : "number[1]",
							"parameter_invisible" : 2,
							"parameter_shortname" : "number[1]"
						}

					}
,
					"triangle" : 0,
					"varname" : "number[1]"
				}

			}
, 			{
				"box" : 				{
					"angle" : 270.0,
					"background" : 1,
					"bgcolor" : [ 0.117647058823529, 0.113725490196078, 0.133333333333333, 1.0 ],
					"border" : 5,
					"bordercolor" : [ 0.2, 0.192156862745098, 0.211764705882353, 1.0 ],
					"id" : "obj-154",
					"maxclass" : "panel",
					"mode" : 0,
					"numinlets" : 1,
					"numoutlets" : 0,
					"patching_rect" : [ 109.5, 98.783335119485798, 368.0, 530.049998104572296 ],
					"presentation" : 1,
					"presentation_rect" : [ 0.5, 0.783335119485798, 262.0, 168.049998104572353 ],
					"proportion" : 0.5
				}

			}
 ],
		"lines" : [ 			{
				"patchline" : 				{
					"destination" : [ "obj-3", 0 ],
					"order" : 0,
					"source" : [ "obj-10", 0 ]
				}

			}
, 			{
				"patchline" : 				{
					"destination" : [ "obj-38", 0 ],
					"order" : 1,
					"source" : [ "obj-10", 0 ]
				}

			}
, 			{
				"patchline" : 				{
					"destination" : [ "obj-69", 0 ],
					"source" : [ "obj-11", 2 ]
				}

			}
, 			{
				"patchline" : 				{
					"destination" : [ "obj-70", 0 ],
					"source" : [ "obj-11", 1 ]
				}

			}
, 			{
				"patchline" : 				{
					"destination" : [ "obj-73", 0 ],
					"source" : [ "obj-11", 0 ]
				}

			}
, 			{
				"patchline" : 				{
					"destination" : [ "obj-44", 0 ],
					"source" : [ "obj-14", 0 ]
				}

			}
, 			{
				"patchline" : 				{
					"destination" : [ "obj-4", 0 ],
					"source" : [ "obj-16", 0 ]
				}

			}
, 			{
				"patchline" : 				{
					"destination" : [ "obj-16", 0 ],
					"source" : [ "obj-2", 0 ]
				}

			}
, 			{
				"patchline" : 				{
					"destination" : [ "obj-25", 0 ],
					"source" : [ "obj-22", 0 ]
				}

			}
, 			{
				"patchline" : 				{
					"destination" : [ "obj-24", 0 ],
					"source" : [ "obj-25", 0 ]
				}

			}
, 			{
				"patchline" : 				{
					"destination" : [ "obj-46", 0 ],
					"source" : [ "obj-29", 0 ]
				}

			}
, 			{
				"patchline" : 				{
					"destination" : [ "obj-8", 0 ],
					"source" : [ "obj-3", 0 ]
				}

			}
, 			{
				"patchline" : 				{
					"destination" : [ "obj-45", 0 ],
					"source" : [ "obj-30", 0 ]
				}

			}
, 			{
				"patchline" : 				{
					"destination" : [ "obj-23", 0 ],
					"source" : [ "obj-31", 0 ]
				}

			}
, 			{
				"patchline" : 				{
					"destination" : [ "obj-29", 0 ],
					"source" : [ "obj-33", 2 ]
				}

			}
, 			{
				"patchline" : 				{
					"destination" : [ "obj-30", 0 ],
					"source" : [ "obj-33", 1 ]
				}

			}
, 			{
				"patchline" : 				{
					"destination" : [ "obj-31", 0 ],
					"source" : [ "obj-33", 0 ]
				}

			}
, 			{
				"patchline" : 				{
					"destination" : [ "obj-14", 0 ],
					"source" : [ "obj-34", 3 ]
				}

			}
, 			{
				"patchline" : 				{
					"destination" : [ "obj-5", 0 ],
					"order" : 0,
					"source" : [ "obj-34", 2 ]
				}

			}
, 			{
				"patchline" : 				{
					"destination" : [ "obj-58", 0 ],
					"source" : [ "obj-34", 0 ]
				}

			}
, 			{
				"patchline" : 				{
					"destination" : [ "obj-60", 0 ],
					"source" : [ "obj-34", 1 ]
				}

			}
, 			{
				"patchline" : 				{
					"destination" : [ "obj-63", 0 ],
					"order" : 1,
					"source" : [ "obj-34", 2 ]
				}

			}
, 			{
				"patchline" : 				{
					"destination" : [ "obj-64", 0 ],
					"source" : [ "obj-35", 2 ]
				}

			}
, 			{
				"patchline" : 				{
					"destination" : [ "obj-65", 0 ],
					"source" : [ "obj-35", 1 ]
				}

			}
, 			{
				"patchline" : 				{
					"destination" : [ "obj-67", 0 ],
					"source" : [ "obj-35", 0 ]
				}

			}
, 			{
				"patchline" : 				{
					"destination" : [ "obj-77", 0 ],
					"source" : [ "obj-37", 1 ]
				}

			}
, 			{
				"patchline" : 				{
					"destination" : [ "obj-78", 0 ],
					"source" : [ "obj-37", 0 ]
				}

			}
, 			{
				"patchline" : 				{
					"destination" : [ "obj-11", 0 ],
					"order" : 0,
					"source" : [ "obj-38", 0 ]
				}

			}
, 			{
				"patchline" : 				{
					"destination" : [ "obj-33", 0 ],
					"source" : [ "obj-38", 4 ]
				}

			}
, 			{
				"patchline" : 				{
					"destination" : [ "obj-34", 0 ],
					"source" : [ "obj-38", 2 ]
				}

			}
, 			{
				"patchline" : 				{
					"destination" : [ "obj-35", 0 ],
					"order" : 0,
					"source" : [ "obj-38", 1 ]
				}

			}
, 			{
				"patchline" : 				{
					"destination" : [ "obj-37", 0 ],
					"source" : [ "obj-38", 5 ]
				}

			}
, 			{
				"patchline" : 				{
					"destination" : [ "obj-6", 1 ],
					"order" : 1,
					"source" : [ "obj-38", 0 ]
				}

			}
, 			{
				"patchline" : 				{
					"destination" : [ "obj-7", 0 ],
					"order" : 1,
					"source" : [ "obj-38", 1 ]
				}

			}
, 			{
				"patchline" : 				{
					"destination" : [ "obj-53", 0 ],
					"source" : [ "obj-43", 0 ]
				}

			}
, 			{
				"patchline" : 				{
					"destination" : [ "obj-51", 0 ],
					"source" : [ "obj-5", 0 ]
				}

			}
, 			{
				"patchline" : 				{
					"destination" : [ "obj-17", 0 ],
					"source" : [ "obj-51", 0 ]
				}

			}
, 			{
				"patchline" : 				{
					"destination" : [ "obj-36", 0 ],
					"source" : [ "obj-58", 0 ]
				}

			}
, 			{
				"patchline" : 				{
					"destination" : [ "obj-41", 0 ],
					"source" : [ "obj-60", 0 ]
				}

			}
, 			{
				"patchline" : 				{
					"destination" : [ "obj-42", 0 ],
					"source" : [ "obj-63", 0 ]
				}

			}
, 			{
				"patchline" : 				{
					"destination" : [ "obj-20", 0 ],
					"source" : [ "obj-64", 0 ]
				}

			}
, 			{
				"patchline" : 				{
					"destination" : [ "obj-19", 0 ],
					"source" : [ "obj-65", 0 ]
				}

			}
, 			{
				"patchline" : 				{
					"destination" : [ "obj-13", 0 ],
					"source" : [ "obj-67", 0 ]
				}

			}
, 			{
				"patchline" : 				{
					"destination" : [ "obj-18", 0 ],
					"source" : [ "obj-69", 0 ]
				}

			}
, 			{
				"patchline" : 				{
					"destination" : [ "obj-22", 0 ],
					"source" : [ "obj-7", 0 ]
				}

			}
, 			{
				"patchline" : 				{
					"destination" : [ "obj-12", 0 ],
					"source" : [ "obj-70", 0 ]
				}

			}
, 			{
				"patchline" : 				{
					"destination" : [ "obj-47", 0 ],
					"source" : [ "obj-73", 0 ]
				}

			}
, 			{
				"patchline" : 				{
					"destination" : [ "obj-50", 0 ],
					"source" : [ "obj-77", 0 ]
				}

			}
, 			{
				"patchline" : 				{
					"destination" : [ "obj-48", 0 ],
					"source" : [ "obj-78", 0 ]
				}

			}
 ],
		"parameters" : 		{
			"obj-73" : [ "number[11]", "number[11]", 0 ],
			"obj-14" : [ "number[16]", "number[5]", 0 ],
			"obj-29" : [ "number[18]", "number[10]", 0 ],
			"obj-69" : [ "number[13]", "number[13]", 0 ],
			"obj-43" : [ "number[1]", "number[1]", 0 ],
			"obj-30" : [ "number[19]", "number[9]", 0 ],
			"obj-77" : [ "number[15]", "number[15]", 0 ],
			"obj-63" : [ "number[7]", "number[7]", 0 ],
			"obj-64" : [ "number[10]", "number[10]", 0 ],
			"obj-31" : [ "number[20]", "number[8]", 0 ],
			"obj-25" : [ "number[21]", "number[5]", 0 ],
			"obj-70" : [ "number[12]", "number[12]", 0 ],
			"obj-65" : [ "number[9]", "number[9]", 0 ],
			"obj-78" : [ "number[14]", "number[14]", 0 ],
			"obj-60" : [ "number[6]", "number[6]", 0 ],
			"obj-67" : [ "number[8]", "number[8]", 0 ],
			"obj-58" : [ "number[5]", "number[5]", 0 ],
			"obj-51" : [ "number[17]", "number[17]", 0 ],
			"parameterbanks" : 			{

			}

		}
,
		"dependency_cache" : [  ],
		"autosave" : 0,
		"boxgroups" : [ 			{
				"boxes" : [ "obj-9", "obj-154", "obj-58", "obj-60", "obj-67", "obj-65", "obj-73", "obj-70", "obj-15", "obj-21", "obj-63", "obj-64", "obj-69", "obj-78", "obj-77", "obj-51", "obj-14", "obj-31", "obj-30", "obj-29", "obj-25", "obj-26", "obj-32", "obj-39", "obj-43", "obj-131", "obj-49" ]
			}
 ],
		"styles" : [ 			{
				"name" : "aileron",
				"default" : 				{
					"fontface" : [ 0 ],
					"locked_bgcolor" : [ 0.898039, 0.898039, 0.898039, 1.0 ],
					"fontsize" : [ 12.0 ],
					"fontname" : [ "Arial" ]
				}
,
				"parentstyle" : "",
				"multi" : 0
			}
 ]
	}

}
